<svg version="1.1" viewBox="0.0 0.0 400.0 366.87401574803147" fill="none" stroke="none" stroke-linecap="square" stroke-miterlimit="10" xmlns:xlink="http://www.w3.org/1999/xlink" xmlns="http://www.w3.org/2000/svg"><clipPath id="p.0"><path d="m0 0l400.0 0l0 366.87402l-400.0 0l0 -366.87402z" clip-rule="nonzero"/></clipPath><g clip-path="url(#p.0)"><path fill="#000000" fill-opacity="0.0" d="m0 0l400.0 0l0 366.87402l-400.0 0z" fill-rule="evenodd"/><path fill="#000000" fill-opacity="0.0" d="m-66.15721 8.419948l532.31494 0l0 368.0315l-532.31494 0z" fill-rule="evenodd"/><path fill="#000000" d="m51.701355 161.3157l0 -113.828125l38.90625 0q25.9375 0 42.140625 16.125q16.21875 16.124996 16.21875 40.874996q0 24.921883 -16.296875 40.875008q-16.296875 15.953125 -42.0625 15.953125l-38.90625 0zm38.90625 -12.625q19.453125 0 31.5625 -12.203125q12.125 -12.203133 12.125 -32.000008q0 -19.796875 -11.953125 -32.078125q-11.9375 -12.296871 -31.734375 -12.296871l-24.75 0l0 88.578125l24.75 0zm117.41249 14.671875q-27.468765 0 -43.687515 -18.09375l8.359375 -10.75q7.0 7.859375 16.375 12.046875q9.39064 4.171875 19.468765 4.171875q12.28125 0 19.53125 -5.453125q7.265625 -5.46875 7.265625 -14.171875q0 -13.484383 -21.171875 -19.281258q-25.07814 -6.65625 -32.000015 -10.578125q-6.90625 -3.9375 -10.578125 -9.8125q-3.671875 -5.890625 -3.671875 -14.09375q0 -13.640621 11.0 -22.593746q11.01564 -8.96875 28.093765 -8.96875q25.59375 0 40.4375 15.875l-8.53125 10.406246q-12.28125 -13.656246 -32.9375 -13.656246q-10.234375 0 -16.812515 4.953125q-6.5625 4.953121 -6.5625 13.140621q0 5.96875 5.453125 10.15625q5.4687653 4.171875 15.875015 6.734375q24.234375 6.65625 31.3125 10.921875q7.078125 4.265625 10.921875 10.5q3.84375 6.21875 3.84375 15.093758q0 15.703125 -11.4375 24.578125q-11.4375 8.875 -30.546875 8.875zm129.02016 -2.046875l-29.015625 -45.218758l-22.703125 0l0 45.218758l-14.15625 0l0 -113.828125l45.734375 0q16.046875 0 25.859375 9.5625q9.8125 9.546871 9.8125 24.734371q0 14.34375 -8.28125 23.140625q-8.28125 8.78125 -21.25 9.96875l30.71875 46.421883l-16.71875 0zm-21.84375 -57.687508q10.234375 0 16.453125 -6.046875q6.234375 -6.0625 6.234375 -15.796875q0 -9.71875 -6.234375 -15.6875q-6.21875 -5.984371 -16.453125 -5.984371l-29.875 0l0 43.51562l29.875 0z" fill-rule="nonzero"/><path fill="#000000" d="m137.19847 315.3157l0 -52.21875l-66.5625 0l0 52.21875l-14.15625 0l0 -113.828125l14.15625 0l0 48.984375l66.5625 0l0 -48.984375l14.171875 0l0 113.828125l-14.171875 0zm95.91348 0l0 -11.609375q-4.78125 5.46875 -12.46875 9.5625q-7.671875 4.09375 -16.890625 4.09375q-26.281265 0 -26.281265 -26.28125l0 -58.1875l12.79689 0l0 54.265625q0 9.71875 4.4375 14.25q4.4375 4.515625 14.0 4.515625q7.5 0 14.15625 -3.75q6.65625 -3.75 10.25 -8.703125l0 -60.578125l12.796875 0l0 82.421875l-12.796875 0zm51.18782 -22.359375q3.421875 5.46875 10.15625 9.21875q6.75 3.75 14.421875 3.75q12.125 0 19.375 -8.78125q7.25 -8.796875 7.25 -22.953125q0 -14.34375 -7.171875 -23.125q-7.171875 -8.796875 -19.453125 -8.796875q-7.671875 0 -14.421875 3.9375q-6.734375 3.921875 -10.15625 9.375l0 37.375zm-12.796875 22.359375l0 -113.828125l12.796875 0l0 43.859375q10.578125 -14.5 27.828125 -14.5q16.375 0 26.53125 11.953125q10.15625 11.9375 10.15625 31.390625q0 19.796875 -10.15625 31.484375q-10.15625 11.6875 -26.53125 11.6875q-8.703125 0 -15.96875 -4.0q-7.25 -4.015625 -11.859375 -10.328125l0 12.28125l-12.796875 0z" fill-rule="nonzero"/></g></svg>