<svg version="1.1" viewBox="0.0 0.0 48.0 48.0" fill="none" stroke="none" stroke-linecap="square" stroke-miterlimit="10" xmlns:xlink="http://www.w3.org/1999/xlink" xmlns="http://www.w3.org/2000/svg"><clipPath id="p.0"><path d="m0 0l48.0 0l0 48.0l-48.0 0l0 -48.0z" clip-rule="nonzero"/></clipPath><g clip-path="url(#p.0)"><path fill="#000000" fill-opacity="0.0" d="m0 0l48.0 0l0 48.0l-48.0 0z" fill-rule="evenodd"/><path fill="#000000" fill-opacity="0.0" d="m-7.6346455 19.661102l63.27559 0l0 8.692913l-63.27559 0z" fill-rule="evenodd"/><path fill="#000000" d="m6.1278973 27.467558l0 -6.21875l2.125 0q1.40625 0 2.296875 0.890625q0.890625 0.875 0.890625 2.21875q0 1.359375 -0.890625 2.234375q-0.890625 0.875 -2.296875 0.875l-2.125 0zm2.125 -0.6875q1.0625 0 1.71875 -0.671875q0.671875 -0.671875 0.671875 -1.75q0 -1.078125 -0.65625 -1.75q-0.65625 -0.671875 -1.734375 -0.671875l-1.359375 0l0 4.84375l1.359375 0zm6.4203186 0.796875q-1.515625 0 -2.390625 -0.984375l0.453125 -0.59375q0.375 0.4375 0.890625 0.671875q0.515625 0.21875 1.0625 0.21875q0.671875 0 1.0625 -0.296875q0.40625 -0.296875 0.40625 -0.78125q0 -0.734375 -1.15625 -1.046875q-1.375 -0.359375 -1.75 -0.578125q-0.375 -0.21875 -0.578125 -0.53125q-0.203125 -0.328125 -0.203125 -0.78125q0 -0.734375 0.59375 -1.21875q0.609375 -0.5 1.546875 -0.5q1.390625 0 2.203125 0.859375l-0.453125 0.578125q-0.671875 -0.75 -1.8125 -0.75q-0.546875 0 -0.90625 0.28125q-0.359375 0.265625 -0.359375 0.703125q0 0.328125 0.296875 0.5625q0.296875 0.21875 0.859375 0.359375q1.328125 0.375 1.71875 0.609375q0.390625 0.234375 0.59375 0.578125q0.203125 0.328125 0.203125 0.8125q0 0.859375 -0.625 1.34375q-0.625 0.484375 -1.65625 0.484375zm7.044403 -0.109375l-1.578125 -2.46875l-1.25 0l0 2.46875l-0.765625 0l0 -6.21875l2.5 0q0.875 0 1.40625 0.53125q0.53125 0.515625 0.53125 1.34375q0 0.78125 -0.453125 1.265625q-0.453125 0.46875 -1.15625 0.546875l1.6875 2.53125l-0.921875 0zm-1.1875 -3.15625q0.546875 0 0.890625 -0.328125q0.34375 -0.328125 0.34375 -0.859375q0 -0.53125 -0.34375 -0.859375q-0.34375 -0.328125 -0.890625 -0.328125l-1.640625 0l0 2.375l1.640625 0zm10.078171 3.15625l0 -2.859375l-3.640625 0l0 2.859375l-0.765625 0l0 -6.21875l0.765625 0l0 2.671875l3.640625 0l0 -2.671875l0.765625 0l0 6.21875l-0.765625 0zm5.23538 0l0 -0.640625q-0.25 0.3125 -0.671875 0.53125q-0.421875 0.21875 -0.921875 0.21875q-1.4375 0 -1.4375 -1.4375l0 -3.171875l0.703125 0l0 2.953125q0 0.546875 0.234375 0.796875q0.25 0.234375 0.765625 0.234375q0.40625 0 0.765625 -0.203125q0.375 -0.203125 0.5625 -0.46875l0 -3.3125l0.703125 0l0 4.5l-0.703125 0zm2.811676 -1.21875q0.171875 0.296875 0.546875 0.5q0.375 0.203125 0.796875 0.203125q0.65625 0 1.046875 -0.46875q0.40625 -0.484375 0.40625 -1.265625q0 -0.78125 -0.390625 -1.265625q-0.390625 -0.484375 -1.0625 -0.484375q-0.421875 0 -0.796875 0.21875q-0.375 0.21875 -0.546875 0.515625l0 2.046875zm-0.703125 1.21875l0 -6.21875l0.703125 0l0 2.390625q0.578125 -0.796875 1.515625 -0.796875q0.890625 0 1.4375 0.65625q0.5625 0.65625 0.5625 1.71875q0 1.078125 -0.5625 1.71875q-0.546875 0.640625 -1.4375 0.640625q-0.484375 0 -0.875 -0.21875q-0.390625 -0.21875 -0.640625 -0.5625l0 0.671875l-0.703125 0z" fill-rule="nonzero"/></g></svg>