<svg version="1.1" viewBox="0.0 0.0 836.0 218.0" fill="none" stroke="none" stroke-linecap="square" stroke-miterlimit="10" xmlns:xlink="http://www.w3.org/1999/xlink" xmlns="http://www.w3.org/2000/svg"><clipPath id="p.0"><path d="m0 0l836.0 0l0 218.0l-836.0 0l0 -218.0z" clip-rule="nonzero"/></clipPath><g clip-path="url(#p.0)"><path fill="#043f93" d="m0 0l836.0 0l0 218.0l-836.0 0z" fill-rule="evenodd"/><path fill="#000000" fill-opacity="0.0" d="m107.56956 -8.737533l784.0 0l0 260.0l-784.0 0z" fill-rule="evenodd"/><path fill="#ffffff" d="m213.88141 160.86247l0 -104.265625l33.59375 0q13.8125 0 24.84375 6.265625q11.03125 6.265625 17.21875 17.6875q6.203125 11.421875 6.265625 25.609375l0 4.796875q0 14.3125 -6.046875 25.671875q-6.046875 11.34375 -17.046875 17.75q-10.984375 6.40625 -24.53125 6.484375l-34.296875 0zm25.140625 -84.859375l0 65.53125l8.734375 0q10.8125 0 16.609375 -7.703125q5.796875 -7.703125 5.796875 -22.875l0 -4.515625q0 -15.109375 -5.796875 -22.765625q-5.796875 -7.671875 -16.890625 -7.671875l-8.453125 0zm123.4516 57.140625q0 -5.515625 -3.90625 -8.59375q-3.90625 -3.078125 -13.71875 -6.359375q-9.796875 -3.296875 -16.03125 -6.375q-20.265625 -9.953125 -20.265625 -27.359375q0 -8.671875 5.046875 -15.28125q5.046875 -6.625 14.28125 -10.3125q9.25 -3.703125 20.765625 -3.703125q11.25 0 20.15625 4.015625q8.921875 4.015625 13.859375 11.421875q4.953125 7.40625 4.953125 16.9375l-25.0625 0q0 -6.375 -3.90625 -9.875q-3.90625 -3.515625 -10.5625 -3.515625q-6.734375 0 -10.640625 2.96875q-3.90625 2.96875 -3.90625 7.5625q0 4.0 4.296875 7.265625q4.296875 3.25 15.109375 6.734375q10.8125 3.46875 17.765625 7.484375q16.90625 9.734375 16.90625 26.84375q0 13.6875 -10.3125 21.5q-10.3125 7.796875 -28.296875 7.796875q-12.671875 0 -22.953125 -4.546875q-10.265625 -4.546875 -15.46875 -12.453125q-5.1875 -7.921875 -5.1875 -18.234375l25.21875 0q0 8.375 4.328125 12.359375q4.328125 3.96875 14.0625 3.96875q6.234375 0 9.84375 -2.6875q3.625 -2.6875 3.625 -7.5625zm76.772125 -9.09375l-13.609375 0l0 36.8125l-25.140625 0l0 -104.265625l41.03125 0q18.546875 0 29.0 8.234375q10.453125 8.234375 10.453125 23.28125q0 10.875 -4.40625 18.046875q-4.390625 7.15625 -13.78125 11.59375l21.78125 42.03125l0 1.078125l-26.9375 0l-18.390625 -36.8125zm-13.609375 -19.40625l15.890625 0q7.15625 0 10.765625 -3.75q3.625 -3.765625 3.625 -10.484375q0 -6.734375 -3.65625 -10.5625q-3.640625 -3.84375 -10.734375 -3.84375l-15.890625 0l0 28.640625zm194.20676 56.21875l-25.0 0l0 -43.53125l-37.015625 0l0 43.53125l-25.140625 0l0 -104.265625l25.140625 0l0 41.390625l37.015625 0l0 -41.390625l25.0 0l0 104.265625zm60.936768 -8.375q-7.671875 9.8125 -20.703125 9.8125q-12.734375 0 -19.296875 -7.40625q-6.546875 -7.421875 -6.546875 -21.3125l0 -50.203125l24.125 0l0 50.34375q0 9.953125 9.671875 9.953125q8.3125 0 11.8125 -5.9375l0 -54.359375l24.28125 0l0 77.484375l-22.625 0l-0.71875 -8.375zm108.490234 -29.71875q0 19.046875 -7.890625 29.296875q-7.875 10.234375 -22.1875 10.234375q-11.8125 0 -19.046875 -9.390625l-1.0 7.953125l-21.625 0l0 -110.0l24.125 0l0 38.75q6.734375 -7.65625 17.40625 -7.65625q14.453125 0 22.328125 10.390625q7.890625 10.375 7.890625 29.203125l0 1.21875zm-24.203125 -1.5q0 -11.171875 -2.984375 -15.9375q-2.96875 -4.765625 -9.125 -4.765625q-8.15625 0 -11.3125 6.234375l0 30.796875q3.078125 6.15625 11.453125 6.15625q8.53125 0 10.8125 -8.3125q1.15625 -4.078125 1.15625 -14.171875z" fill-rule="nonzero"/><path fill="#043f93" d="m24.296587 34.909115l0 0c0 -4.7797604 3.8747635 -8.654522 8.654524 -8.654522l166.69095 0c2.2953339 0 4.496643 0.91181374 6.1196747 2.534851c1.6230469 1.6230373 2.534851 3.8243484 2.534851 6.119671l0 140.7067c0 4.77977 -3.8747559 8.654526 -8.654526 8.654526l-166.69095 0c-4.7797604 0 -8.654524 -3.8747559 -8.654524 -8.654526z" fill-rule="evenodd"/><path fill="#ffffff" d="m44.637794 163.85713l0 0c0 -3.339798 2.7074432 -6.047241 6.047245 -6.047241l0 0c1.6038284 0 3.1419678 0.6371155 4.2760468 1.7711945c1.134079 1.134079 1.7711983 2.6722107 1.7711983 4.2760468l0 0c0 3.339798 -2.7074432 6.047241 -6.047245 6.047241l0 0c-3.3398018 0 -6.047245 -2.7074432 -6.047245 -6.047241z" fill-rule="evenodd"/><path stroke="#ffffff" stroke-width="2.0" stroke-linejoin="round" stroke-linecap="butt" d="m44.637794 163.85713l0 0c0 -3.339798 2.7074432 -6.047241 6.047245 -6.047241l0 0c1.6038284 0 3.1419678 0.6371155 4.2760468 1.7711945c1.134079 1.134079 1.7711983 2.6722107 1.7711983 4.2760468l0 0c0 3.339798 -2.7074432 6.047241 -6.047245 6.047241l0 0c-3.3398018 0 -6.047245 -2.7074432 -6.047245 -6.047241z" fill-rule="evenodd"/><path fill="#ffffff" d="m77.33578 134.38852l0 0c0 -3.339798 2.7074432 -6.047241 6.047241 -6.047241l0 0c1.6038284 0 3.1419754 0.6371155 4.2760468 1.7711945c1.134079 1.134079 1.7712021 2.6722107 1.7712021 4.2760468l0 0c0 3.339798 -2.7074432 6.047241 -6.047249 6.047241l0 0c-3.339798 0 -6.047241 -2.7074432 -6.047241 -6.047241z" fill-rule="evenodd"/><path stroke="#ffffff" stroke-width="2.0" stroke-linejoin="round" stroke-linecap="butt" d="m77.33578 134.38852l0 0c0 -3.339798 2.7074432 -6.047241 6.047241 -6.047241l0 0c1.6038284 0 3.1419754 0.6371155 4.2760468 1.7711945c1.134079 1.134079 1.7712021 2.6722107 1.7712021 4.2760468l0 0c0 3.339798 -2.7074432 6.047241 -6.047249 6.047241l0 0c-3.339798 0 -6.047241 -2.7074432 -6.047241 -6.047241z" fill-rule="evenodd"/><path fill="#ffffff" d="m111.87357 104.02247l0 0c0 -3.3398056 2.7074432 -6.047249 6.047241 -6.047249l0 0c1.6038284 0 3.1419678 0.6371231 4.2760468 1.7712021c1.134079 1.1340714 1.7711945 2.6722183 1.7711945 4.2760468l0 0c0 3.339798 -2.7074432 6.047241 -6.047241 6.047241l0 0c-3.339798 0 -6.047241 -2.7074432 -6.047241 -6.047241z" fill-rule="evenodd"/><path stroke="#ffffff" stroke-width="2.0" stroke-linejoin="round" stroke-linecap="butt" d="m111.87357 104.02247l0 0c0 -3.3398056 2.7074432 -6.047249 6.047241 -6.047249l0 0c1.6038284 0 3.1419678 0.6371231 4.2760468 1.7712021c1.134079 1.1340714 1.7711945 2.6722183 1.7711945 4.2760468l0 0c0 3.339798 -2.7074432 6.047241 -6.047241 6.047241l0 0c-3.339798 0 -6.047241 -2.7074432 -6.047241 -6.047241z" fill-rule="evenodd"/><path fill="#ffffff" d="m146.9617 72.322685l0 0c0 -3.339798 2.7074432 -6.047241 6.047241 -6.047241l0 0c1.6038208 0 3.1419678 0.6371155 4.2760468 1.7711945c1.134079 1.134079 1.7711945 2.6722183 1.7711945 4.2760468l0 0c0 3.339798 -2.7074432 6.047241 -6.047241 6.047241l0 0c-3.339798 0 -6.047241 -2.7074432 -6.047241 -6.047241z" fill-rule="evenodd"/><path stroke="#ffffff" stroke-width="2.0" stroke-linejoin="round" stroke-linecap="butt" d="m146.9617 72.322685l0 0c0 -3.339798 2.7074432 -6.047241 6.047241 -6.047241l0 0c1.6038208 0 3.1419678 0.6371155 4.2760468 1.7711945c1.134079 1.134079 1.7711945 2.6722183 1.7711945 4.2760468l0 0c0 3.339798 -2.7074432 6.047241 -6.047241 6.047241l0 0c-3.339798 0 -6.047241 -2.7074432 -6.047241 -6.047241z" fill-rule="evenodd"/><path fill="#ffffff" d="m175.86131 46.66776l0 0c0 -3.3398018 2.7074432 -6.047245 6.047241 -6.047245l0 0c1.6038208 0 3.1419678 0.6371193 4.2760468 1.7711983c1.134079 1.134079 1.7711945 2.6722183 1.7711945 4.2760468l0 0c0 3.3398018 -2.7074432 6.047245 -6.047241 6.047245l0 0c-3.339798 0 -6.047241 -2.7074432 -6.047241 -6.047245z" fill-rule="evenodd"/><path stroke="#ffffff" stroke-width="2.0" stroke-linejoin="round" stroke-linecap="butt" d="m175.86131 46.66776l0 0c0 -3.3398018 2.7074432 -6.047245 6.047241 -6.047245l0 0c1.6038208 0 3.1419678 0.6371193 4.2760468 1.7711983c1.134079 1.134079 1.7711945 2.6722183 1.7711945 4.2760468l0 0c0 3.3398018 -2.7074432 6.047245 -6.047241 6.047245l0 0c-3.339798 0 -6.047241 -2.7074432 -6.047241 -6.047245z" fill-rule="evenodd"/><path fill="#000000" fill-opacity="0.0" d="m56.732285 163.85713c30.598427 0 61.196846 -26.897644 61.196846 -53.79528" fill-rule="evenodd"/><path stroke="#ffffff" stroke-width="2.0" stroke-linejoin="round" stroke-linecap="butt" d="m56.732285 163.85713c30.598427 0 61.196846 -26.897644 61.196846 -53.79528" fill-rule="evenodd"/><path fill="#000000" fill-opacity="0.0" d="m54.961086 159.58109l24.157482 -20.913391" fill-rule="evenodd"/><path stroke="#ffffff" stroke-width="2.0" stroke-linejoin="round" stroke-linecap="butt" d="m54.961086 159.58109l15.084919 -13.059189" fill-rule="evenodd"/><path fill="#ffffff" stroke="#ffffff" stroke-width="2.0" stroke-linecap="butt" d="m72.20818 149.01947l4.699852 -8.438095l-9.024208 3.4429474z" fill-rule="evenodd"/><path fill="#000000" fill-opacity="0.0" d="m87.659065 130.11247l25.984253 -21.826775" fill-rule="evenodd"/><path stroke="#ffffff" stroke-width="2.0" stroke-linejoin="round" stroke-linecap="butt" d="m87.65907 130.11247l16.795792 -14.108467" fill-rule="evenodd"/><path fill="#ffffff" stroke="#ffffff" stroke-width="2.0" stroke-linecap="butt" d="m106.57963 118.533485l4.8249207 -8.367218l-9.074448 3.308258z" fill-rule="evenodd"/><path fill="#000000" fill-opacity="0.0" d="m122.19686 99.74642l26.551186 -23.149612" fill-rule="evenodd"/><path stroke="#ffffff" stroke-width="2.0" stroke-linejoin="round" stroke-linecap="butt" d="m122.19686 99.74642l17.50631 -15.263519" fill-rule="evenodd"/><path fill="#ffffff" stroke="#ffffff" stroke-width="2.0" stroke-linecap="butt" d="m141.87413 86.972855l4.6701202 -8.454597l-9.012024 3.4746933z" fill-rule="evenodd"/><path fill="#000000" fill-opacity="0.0" d="m157.28499 68.04664l20.34645 -17.102364" fill-rule="evenodd"/><path stroke="#ffffff" stroke-width="2.0" stroke-linejoin="round" stroke-linecap="butt" d="m157.28499 68.04664l11.160522 -9.381054" fill-rule="evenodd"/><path fill="#ffffff" stroke="#ffffff" stroke-width="2.0" stroke-linecap="butt" d="m170.57109 61.19437l4.8221893 -8.3687935l-9.073364 3.311222z" fill-rule="evenodd"/><path fill="#000000" fill-opacity="0.0" d="m54.961086 168.13318c0 -3.5528564 24.511814 4.1147766 49.023624 -7.1056976c24.51181 -11.220474 49.02362 -41.32904 49.02362 -82.65808" fill-rule="evenodd"/><path stroke="#ffffff" stroke-width="2.0" stroke-linejoin="round" stroke-linecap="butt" d="m54.961086 168.13318c0 -3.5528564 24.511814 4.1147766 49.023624 -7.1056976c24.51181 -11.220474 49.02362 -41.32904 49.02362 -82.65808" fill-rule="evenodd"/><path fill="#000000" fill-opacity="0.0" d="m79.10697 130.11247c0 -39.344376 24.629921 -67.72418 49.25985 -78.68875c24.629913 -10.964565 49.259842 -4.513893 49.259842 -9.027786" fill-rule="evenodd"/><path stroke="#ffffff" stroke-width="2.0" stroke-linejoin="round" stroke-linecap="butt" d="m79.10697 130.11247c0 -39.344376 24.629921 -67.72418 49.25985 -78.68875c24.629913 -10.964565 49.259842 -4.513893 49.259842 -9.027786" fill-rule="evenodd"/><path fill="#000000" fill-opacity="0.0" d="m117.920815 97.97522c0 -25.653542 28.976372 -51.307083 57.95275 -51.307083" fill-rule="evenodd"/><path stroke="#ffffff" stroke-width="2.0" stroke-linejoin="round" stroke-linecap="butt" d="m117.920815 97.97522c0 -25.653542 28.976372 -51.307083 57.95275 -51.307083" fill-rule="evenodd"/></g></svg>